<?xml version="1.0" encoding="utf-8"?>
<!-- Generator: Adobe Illustrator 24.3.0, SVG Export Plug-In . SVG Version: 6.00 Build 0)  -->
<svg version="1.1" id="Layer_1" xmlns="http://www.w3.org/2000/svg" xmlns:xlink="http://www.w3.org/1999/xlink" x="0px" y="0px"
	 viewBox="0 0 650 200" style="enable-background:new 0 0 650 200;" xml:space="preserve">
<style type="text/css">
	.st0{fill:#0D1013;}
	.st1{fill:none;stroke:#84B4E6;stroke-width:2;}
	.st2{fill:#0C6CD1;}
	.st3{fill:#FBFBFB;}
	.st4{fill:#FFFFFF;}
</style>
<rect x="-11" y="-12" class="st0" width="681" height="225"/>
<g>
	<g>
		<path vector-effect="non-scaling-stroke" class="st1" d="M89.4,125.6c6,0,10.9,0,14.7,0c2.7,0,4.3-0.1,4.8-0.2
			c1.6-0.4,2.9-1.2,3.9-2.6c5.5-7.2,12.3-16.2,20.5-27.2c0.9-1.3,1.5-2.3,1.8-3.1c0.4-1.2,0.5-2.4,0.3-3.6
			c-0.5-2.3-1.6-7.3-3.5-14.7c-0.7-2.9-1.6-6.4-2.5-10.3c-1.2-4.8-2.1-8.3-2.7-10.3c-0.4-1.2-0.9-2.1-1.7-2.7
			c-1.1-0.8-1.7-1.2-1.9-1.2c-10-4.7-21.1-10.2-32-15.5c-0.4-0.2-1-0.3-1.9-0.3c-0.9,0-1.5,0.1-1.9,0.3c-10.9,5.4-22,10.9-31.9,15.6
			c-0.2,0.1-0.8,0.5-1.9,1.2c-0.8,0.5-1.3,1.4-1.7,2.7c-0.6,2-1.5,5.4-2.6,10.3c-1,3.9-1.8,7.4-2.5,10.3c-1.8,7.5-3,12.4-3.4,14.8
			c-0.2,1.1-0.1,2.3,0.3,3.6c0.3,0.8,0.9,1.8,1.8,3.1c8.2,10.9,15,20,20.6,27.2c1.1,1.4,2.4,2.2,3.9,2.6c0.5,0.1,2.1,0.2,4.8,0.2
			C78.5,125.7,83.4,125.7,89.4,125.6"/>
		<path vector-effect="non-scaling-stroke" class="st1" d="M89.4,122c10,0,15.5,0,16.5,0c1.6,0,2.9-0.3,3.7-1.4
			c1.8-2.3,8.6-11.3,20.4-27c1-1.3,1.9-2.8,1.6-4.3c-0.3-1.5-1.6-6.7-3.8-15.5c-0.7-2.6-2.1-8.6-4.4-17.8c-0.3-1.3-1.1-2.2-2.3-2.8
			c-10.1-4.8-20.2-9.8-30.3-14.8c-0.4-0.2-0.9-0.3-1.5-0.3c-0.6,0-1.1,0.1-1.5,0.3c-10.1,5-20.2,10-30.3,14.8
			c-1.2,0.6-2,1.5-2.3,2.8c-2.3,9.3-3.7,15.2-4.4,17.8c-2.2,8.8-3.4,14-3.8,15.5c-0.3,1.5,0.6,3,1.6,4.3
			c11.8,15.6,18.6,24.6,20.4,26.9c0.8,1.1,2.1,1.4,3.7,1.4C73.9,122,79.4,122,89.4,122"/>
		<path vector-effect="non-scaling-stroke" class="st1" d="M89.3,105.8c2.5,0,4.9-0.4,7.3-1.2c0.4-0.1,0.9-0.1,1.2,0.2
			c1.2,0.9,2,3.1,2.2,4.5c0.1,0.6,0.3,1,0.4,1.1c0.7,0.8,1.7,1.3,2.7,0.6c0.6-0.4,1-0.9,1.2-1.5c0-0.1,0-0.3,0-0.4
			c-0.1-0.6-0.3-1.1-0.5-1.2c-0.9-0.9-3.8-4.8-2.1-5.8c4.6-2.8,7.2-6.5,9.5-11.3c0.2-0.4,0.6-0.7,1.1-0.7c0.8,0,1.6,0.1,2.6,0.3
			c1.2,0.3,2.6,1.7,3.8,1.4c1.1-0.3,1.6-1,1.7-2.1c0.1-1-0.4-1.5-1.1-2c-0.3-0.2-0.8-0.3-1.5-0.3c-1.3,0-5.4-0.1-5.2-2.3
			c0.7-5.5-0.3-10.4-2.8-14.8c-0.4-0.7-0.5-1.3,0-1.9c1.1-1.4,2.3-2.4,3.6-3c1.1-0.5,1.7-0.8,1.9-1.1c0.5-0.7,0.5-1.5,0.1-2.3
			c-0.1-0.1-0.1-0.2-0.2-0.3c-1.2-1.2-2.4-1.2-3.5,0.1c-1.2,1.3-4.1,4.7-5.8,3c-3.8-3.8-8.2-6-13.2-6.6c-0.7-0.1-1.3-0.3-1.5-0.9
			c-0.4-1.3-0.5-2.7-0.2-4.3c0.2-1.2,0.3-1.8,0.3-2c-0.1-1.2-0.9-2-2.1-2c-1.2,0-2,0.8-2.1,2c0,0.2,0.1,0.9,0.3,2
			c0.3,1.6,0.3,3-0.2,4.3c-0.2,0.6-0.9,0.9-1.5,0.9c-5,0.6-9.5,2.8-13.2,6.6c-1.6,1.7-4.6-1.6-5.8-3c-1.1-1.3-2.3-1.3-3.5-0.1
			c-0.1,0.1-0.2,0.2-0.2,0.3c-0.4,0.8-0.4,1.6,0.1,2.3c0.2,0.2,0.8,0.6,1.9,1.1c1.4,0.6,2.6,1.6,3.7,3c0.5,0.7,0.4,1.2,0,1.9
			c-2.5,4.4-3.5,9.3-2.8,14.8c0.3,2.2-3.9,2.3-5.2,2.3c-0.7,0-1.2,0.1-1.5,0.3c-0.7,0.6-1.2,1.1-1.1,2c0.1,1.1,0.7,1.7,1.8,2.1
			c1.2,0.4,2.6-1.1,3.8-1.4c1-0.3,1.8-0.4,2.6-0.3c0.5,0,0.9,0.3,1.1,0.7c2.3,4.7,4.9,8.4,9.5,11.2c1.7,1.1-1.2,4.9-2.1,5.8
			c-0.2,0.2-0.3,0.6-0.5,1.2c0,0.1,0,0.3,0,0.4c0.2,0.6,0.6,1.1,1.2,1.5c1,0.6,2,0.2,2.7-0.6c0.2-0.2,0.3-0.6,0.4-1.1
			c0.3-1.4,1.1-3.6,2.2-4.5c0.3-0.3,0.8-0.4,1.2-0.2C84.4,105.4,86.9,105.8,89.3,105.8"/>
		<path vector-effect="non-scaling-stroke" class="st1" d="M80.9,64.8c-1.9,1-3.5,2.1-4.8,3.5c-0.1,0.1-0.1,0.3,0,0.4c0,0,0,0,0,0
			c2.1,1.3,4.3,2.8,6.6,4.3c1,0.7,1.9,0.8,2.5,0.5c0.7-0.3,1-1.1,1.1-2.3c0.1-2.8,0.3-5.4,0.4-7.9c0-0.1-0.1-0.3-0.3-0.3
			c0,0,0,0,0,0C84.7,63.3,82.8,63.9,80.9,64.8"/>
		<path vector-effect="non-scaling-stroke" class="st1" d="M91.8,63.3c0.1,2.3,0.3,5.3,0.6,9c0.2,1.8,2.3,1.4,3.4,0.7
			c2.4-1.5,4.7-3,6.9-4.4c0.1,0,0.1-0.1,0-0.2c0,0,0,0,0,0c-3-3.1-6.5-4.9-10.7-5.4C91.9,63.1,91.8,63.1,91.8,63.3
			C91.8,63.3,91.8,63.3,91.8,63.3"/>
		<path vector-effect="non-scaling-stroke" class="st1" d="M107.7,78.2c-0.4-1.8-1-3.6-2.1-5.5c0-0.1-0.2-0.1-0.2-0.1c0,0,0,0,0,0
			c-1.6,1.3-3.8,3.2-6.7,5.7c-0.6,0.5-0.8,1.1-0.7,1.8c0.1,0.7,0.6,1.1,1.3,1.4c3.6,1.2,6.4,2.2,8.3,2.8c0.1,0,0.2,0,0.2-0.1
			c0,0,0,0,0,0C108.1,82,108.1,80,107.7,78.2"/>
		<path vector-effect="non-scaling-stroke" class="st1" d="M70.8,78.3c-0.4,1.8-0.4,3.8-0.2,5.9c0,0.1,0.1,0.2,0.2,0.2c0,0,0,0,0,0
			c1.9-0.6,4.7-1.5,8.4-2.7c0.8-0.3,1.2-0.7,1.3-1.4c0.1-0.7-0.1-1.3-0.7-1.8c-2.9-2.5-5.1-4.5-6.7-5.8c-0.1-0.1-0.2-0.1-0.3,0
			c0,0,0,0,0,0C71.9,74.6,71.2,76.4,70.8,78.3"/>
		<path vector-effect="non-scaling-stroke" class="st1" d="M93.1,81.7c0-2.1-1.7-3.8-3.8-3.8l0,0c-2.1,0-3.8,1.7-3.8,3.8
			s1.7,3.8,3.8,3.8C91.4,85.5,93.1,83.8,93.1,81.7L93.1,81.7"/>
		<path vector-effect="non-scaling-stroke" class="st1" d="M74.8,94.1c1.2,1.5,2.6,2.8,4.3,3.8c0.1,0.1,0.2,0,0.2-0.1c0,0,0,0,0,0
			c1.4-3.4,2.5-6.2,3.4-8.4c0.2-0.5,0.1-1-0.3-1.5c-0.4-0.5-0.9-0.7-1.4-0.6c-2.4,0.4-5.4,0.9-9,1.6c-0.1,0-0.2,0.1-0.1,0.2
			c0,0,0,0,0,0C72.6,90.9,73.5,92.6,74.8,94.1"/>
		<path vector-effect="non-scaling-stroke" class="st1" d="M96.2,87.9c-0.4,0.5-0.4,1.3,0,2.3c0.8,2,1.9,4.5,3,7.5
			c0,0.1,0.1,0.2,0.2,0.2c0.1,0.1,0.1,0.1,0.2,0c1.5-1,2.9-2.2,4.2-3.8c1.2-1.5,2.2-3.1,2.9-4.9c0-0.1,0-0.2-0.1-0.2
			c-0.1-0.1-0.2-0.1-0.2-0.1c-3.1-0.6-5.8-1.1-7.9-1.5C97.3,87.2,96.6,87.4,96.2,87.9"/>
		<path vector-effect="non-scaling-stroke" class="st1" d="M89.3,100.9c1.9,0,3.8-0.3,5.5-0.9c0.1,0,0.1-0.1,0.1-0.2c0,0,0,0,0,0
			c-1.7-3.2-3.1-5.8-4.3-7.8c-0.3-0.5-0.7-0.7-1.3-0.7c-0.6,0-1,0.2-1.3,0.7c-1.2,2-2.6,4.6-4.4,7.8c0,0.1,0,0.2,0.1,0.2
			c0,0,0,0,0,0C85.6,100.6,87.4,100.9,89.3,100.9"/>
	</g>
	<path class="st2" d="M90.2,190.8h-1.5c-0.8-0.5-1.5-1.1-2.1-2c-0.3-0.5-0.6-0.9-0.8-1.1c-0.4-0.4-0.6-1-1-1.5
		c-6.1-8.6-12.9-18.1-20.3-28.6c-8.2-11.5-17.3-24.2-27.4-37.9c-0.9-1.3-2.1-3-3.6-5.1c-5.7-8.6-9.7-18.2-11.2-28.4
		c-0.1-1-0.4-1.9-0.3-3c0-0.2,0-0.5-0.1-0.7c0-0.1-0.1-0.2-0.1-0.3c0-5.7,0-9.2,0-10.4c0.2-2.8,0.7-6.4,1.7-10.9
		c0.3-1.3,0.7-2.3,1-3.5c0.1-0.4,0.2-0.9,0.4-1.4c3.5-10.5,9.2-19.6,17.1-27.3c0.4-0.4,0.8-0.8,1.4-1.2c0.5-0.4,1.3-1.2,1.8-1.7
		c2.8-2.4,5.9-4.7,9.4-6.8c1-0.6,1.6-0.8,2.3-1.3c0.5-0.4,0.8-0.6,0.9-0.6c1.6-0.7,2.9-1.5,4.5-2.1c0.5-0.2,0.9-0.3,1.2-0.5
		c0.4-0.2,0.8-0.4,1.2-0.5c4.1-1.5,7.9-2.6,11.2-3.3c0.6-0.1,2.7-0.5,6.3-1c0.5-0.1,1.1-0.1,2-0.2c0.9-0.1,1.5-0.1,2-0.1
		c2.4-0.2,5.2-0.1,8.4,0.2c5.5,0.5,10.7,1.6,15.7,3.2c0.6,0.2,2,0.7,4.2,1.6c6.2,2.4,11.9,5.8,17,10.1c2.2,1.8,3.6,3.1,4.2,3.6
		c0.4,0.4,0.7,0.9,1.1,1.1c0.1,0,0.2,0.1,0.2,0.2l3.2,3.6c0,0,0.1,0.1,0.1,0.1c0,0.2,0.2,0.4,0.3,0.5c0.8,0.8,1.7,1.9,2.7,3.3
		c4.9,6.7,8.4,13.9,10.5,21.6c0,0.1,0.1,0.2,0.1,0.3c0,0,0,0,0,0c0,0,0.1,0.1,0.1,0.1c0.8,3.5,1.3,5.8,1.4,6.9
		c1.7,11.1,0.9,21.7-2.5,31.7c-1.4,4.3-3.5,8.9-6.3,13.8c-1.4,2.4-4.2,6.6-8.6,12.5c-15.7,21.4-30.9,42.9-46.5,64.9
		C91.3,189.6,90.8,190.2,90.2,190.8z M89.4,125.6c6,0,10.9,0,14.7,0c2.7,0,4.3-0.1,4.8-0.2c1.6-0.4,2.9-1.2,3.9-2.6
		c5.5-7.2,12.3-16.2,20.5-27.2c0.9-1.3,1.5-2.3,1.8-3.1c0.4-1.2,0.5-2.4,0.3-3.6c-0.5-2.3-1.6-7.3-3.5-14.7
		c-0.7-2.9-1.6-6.4-2.5-10.3c-1.2-4.8-2.1-8.3-2.7-10.3c-0.4-1.2-0.9-2.1-1.7-2.7c-1.1-0.8-1.7-1.2-1.9-1.2
		c-10-4.7-21.1-10.2-32-15.5c-0.4-0.2-1-0.3-1.9-0.3c-0.9,0-1.5,0.1-1.9,0.3c-10.9,5.4-22,10.9-31.9,15.6c-0.2,0.1-0.8,0.5-1.9,1.2
		c-0.8,0.5-1.3,1.4-1.7,2.7c-0.6,2-1.5,5.4-2.6,10.3c-1,3.9-1.8,7.4-2.5,10.3c-1.8,7.5-3,12.4-3.4,14.8c-0.2,1.1-0.1,2.3,0.3,3.6
		c0.3,0.8,0.9,1.8,1.8,3.1c8.2,10.9,15,20,20.6,27.2c1.1,1.4,2.4,2.2,3.9,2.6c0.5,0.1,2.1,0.2,4.8,0.2
		C78.5,125.7,83.4,125.7,89.4,125.6z"/>
	<path class="st3" d="M89.2,33.9c0.9,0,1.5,0.1,1.9,0.3c10.9,5.3,22,10.8,32,15.5c0.2,0.1,0.8,0.5,1.9,1.2c0.8,0.5,1.3,1.4,1.7,2.7
		c0.6,2,1.5,5.4,2.7,10.3c1,3.9,1.8,7.4,2.5,10.3c1.9,7.5,3,12.4,3.5,14.7c0.2,1.1,0.1,2.3-0.3,3.6c-0.3,0.8-0.9,1.8-1.8,3.1
		c-8.1,11-15,20-20.5,27.2c-1.1,1.4-2.4,2.2-3.9,2.6c-0.5,0.1-2.1,0.2-4.8,0.2c-3.8,0-8.7,0-14.7,0c-6,0-10.9,0-14.7,0
		c-2.7,0-4.3,0-4.8-0.2c-1.6-0.4-2.9-1.2-3.9-2.6c-5.5-7.2-12.4-16.2-20.6-27.2c-0.9-1.3-1.6-2.3-1.8-3.1c-0.4-1.2-0.6-2.4-0.3-3.6
		c0.5-2.3,1.6-7.3,3.4-14.8c0.7-2.9,1.6-6.4,2.5-10.3c1.2-4.8,2-8.3,2.6-10.3c0.4-1.2,0.9-2.1,1.7-2.7c1.1-0.8,1.7-1.2,1.9-1.2
		c10-4.7,21.1-10.2,31.9-15.6C87.7,34,88.4,33.9,89.2,33.9z M89.4,122c10,0,15.5,0,16.5,0c1.6,0,2.9-0.3,3.7-1.4
		c1.8-2.3,8.6-11.3,20.4-27c1-1.3,1.9-2.8,1.6-4.3c-0.3-1.5-1.6-6.7-3.8-15.5c-0.7-2.6-2.1-8.6-4.4-17.8c-0.3-1.3-1.1-2.2-2.3-2.8
		c-10.1-4.8-20.2-9.8-30.3-14.8c-0.4-0.2-0.9-0.3-1.5-0.3c-0.6,0-1.1,0.1-1.5,0.3c-10.1,5-20.2,10-30.3,14.8c-1.2,0.6-2,1.5-2.3,2.8
		c-2.3,9.3-3.7,15.2-4.4,17.8c-2.2,8.8-3.4,14-3.8,15.5c-0.3,1.5,0.6,3,1.6,4.3c11.8,15.6,18.6,24.6,20.4,26.9
		c0.8,1.1,2.1,1.4,3.7,1.4C73.9,122,79.4,122,89.4,122z"/>
	<path class="st2" d="M89.3,38c0.6,0,1.1,0.1,1.5,0.3c10.2,5,20.3,10,30.3,14.8c1.2,0.6,2,1.5,2.3,2.8c2.3,9.3,3.7,15.2,4.4,17.8
		c2.2,8.8,3.4,14,3.8,15.5c0.3,1.5-0.6,3-1.6,4.3c-11.8,15.6-18.6,24.6-20.4,27c-0.8,1.1-2.1,1.4-3.7,1.4c-1,0-6.6,0-16.5,0
		c-10,0-15.5,0-16.5,0c-1.6,0-2.9-0.3-3.7-1.4c-1.8-2.3-8.6-11.3-20.4-26.9c-1-1.3-1.9-2.8-1.6-4.3c0.3-1.5,1.6-6.7,3.8-15.5
		c0.6-2.6,2.1-8.6,4.4-17.8c0.3-1.3,1.1-2.2,2.3-2.8c10-4.8,20.1-9.8,30.3-14.8C88.3,38.1,88.8,38,89.3,38z M89.3,105.8
		c2.5,0,4.9-0.4,7.3-1.2c0.4-0.1,0.9-0.1,1.2,0.2c1.2,0.9,2,3.1,2.2,4.5c0.1,0.6,0.3,1,0.4,1.1c0.7,0.8,1.7,1.3,2.7,0.6
		c0.6-0.4,1-0.9,1.2-1.5c0-0.1,0-0.3,0-0.4c-0.1-0.6-0.3-1.1-0.5-1.2c-0.9-0.9-3.8-4.8-2.1-5.8c4.6-2.8,7.2-6.5,9.5-11.3
		c0.2-0.4,0.6-0.7,1.1-0.7c0.8,0,1.6,0.1,2.6,0.3c1.2,0.3,2.6,1.7,3.8,1.4c1.1-0.3,1.6-1,1.7-2.1c0.1-1-0.4-1.5-1.1-2
		c-0.3-0.2-0.8-0.3-1.5-0.3c-1.3,0-5.4-0.1-5.2-2.3c0.7-5.5-0.3-10.4-2.8-14.8c-0.4-0.7-0.5-1.3,0-1.9c1.1-1.4,2.3-2.4,3.6-3
		c1.1-0.5,1.7-0.8,1.9-1.1c0.5-0.7,0.5-1.5,0.1-2.3c-0.1-0.1-0.1-0.2-0.2-0.3c-1.2-1.2-2.4-1.2-3.5,0.1c-1.2,1.3-4.1,4.7-5.8,3
		c-3.8-3.8-8.2-6-13.2-6.6c-0.7-0.1-1.3-0.3-1.5-0.9c-0.4-1.3-0.5-2.7-0.2-4.3c0.2-1.2,0.3-1.8,0.3-2c-0.1-1.2-0.9-2-2.1-2
		c-1.2,0-2,0.8-2.1,2c0,0.2,0.1,0.9,0.3,2c0.3,1.6,0.3,3-0.2,4.3c-0.2,0.6-0.9,0.9-1.5,0.9c-5,0.6-9.5,2.8-13.2,6.6
		c-1.6,1.7-4.6-1.6-5.8-3c-1.1-1.3-2.3-1.3-3.5-0.1c-0.1,0.1-0.2,0.2-0.2,0.3c-0.4,0.8-0.4,1.6,0.1,2.3c0.2,0.2,0.8,0.6,1.9,1.1
		c1.4,0.6,2.6,1.6,3.7,3c0.5,0.7,0.4,1.2,0,1.9c-2.5,4.4-3.5,9.3-2.8,14.8c0.3,2.2-3.9,2.3-5.2,2.3c-0.7,0-1.2,0.1-1.5,0.3
		c-0.7,0.6-1.2,1.1-1.1,2c0.1,1.1,0.7,1.7,1.8,2.1c1.2,0.4,2.6-1.1,3.8-1.4c1-0.3,1.8-0.4,2.6-0.3c0.5,0,0.9,0.3,1.1,0.7
		c2.3,4.7,4.9,8.4,9.5,11.2c1.7,1.1-1.2,4.9-2.1,5.8c-0.2,0.2-0.3,0.6-0.5,1.2c0,0.1,0,0.3,0,0.4c0.2,0.6,0.6,1.1,1.2,1.5
		c1,0.6,2,0.2,2.7-0.6c0.2-0.2,0.3-0.6,0.4-1.1c0.3-1.4,1.1-3.6,2.2-4.5c0.3-0.3,0.8-0.4,1.2-0.2C84.4,105.4,86.9,105.8,89.3,105.8z
		"/>
	<path class="st3" d="M89.3,49c1.3,0,2,0.8,2.1,2c0,0.2-0.1,0.9-0.3,2c-0.3,1.6-0.3,3,0.2,4.3c0.2,0.6,0.9,0.9,1.5,0.9
		c5,0.6,9.5,2.8,13.2,6.6c1.6,1.7,4.6-1.7,5.8-3c1.1-1.3,2.3-1.3,3.5-0.1c0.1,0.1,0.2,0.2,0.2,0.3c0.4,0.8,0.4,1.6-0.1,2.3
		c-0.2,0.2-0.8,0.6-1.9,1.1c-1.4,0.6-2.6,1.6-3.6,3c-0.5,0.7-0.4,1.2,0,1.9c2.5,4.3,3.5,9.3,2.8,14.8c-0.3,2.2,3.9,2.3,5.2,2.3
		c0.7,0,1.2,0.1,1.5,0.3c0.7,0.6,1.2,1.1,1.1,2c-0.1,1.1-0.7,1.8-1.7,2.1c-1.2,0.4-2.6-1.1-3.8-1.4c-1-0.3-1.8-0.4-2.6-0.3
		c-0.5,0-0.9,0.3-1.1,0.7c-2.3,4.7-4.9,8.4-9.5,11.3c-1.7,1.1,1.2,4.9,2.1,5.8c0.2,0.2,0.3,0.6,0.5,1.2c0,0.1,0,0.3,0,0.4
		c-0.2,0.6-0.6,1.1-1.2,1.5c-1,0.6-2,0.2-2.7-0.6c-0.2-0.2-0.3-0.6-0.4-1.1c-0.3-1.4-1.1-3.6-2.2-4.5c-0.3-0.3-0.8-0.4-1.2-0.2
		c-2.4,0.8-4.8,1.2-7.3,1.2c-2.5,0-4.9-0.4-7.3-1.2c-0.4-0.1-0.9-0.1-1.2,0.2c-1.2,0.9-2,3.1-2.2,4.5c-0.1,0.6-0.3,1-0.4,1.1
		c-0.7,0.8-1.7,1.3-2.7,0.6c-0.6-0.4-1-0.9-1.2-1.5c0-0.1,0-0.3,0-0.4c0.1-0.6,0.3-1.1,0.5-1.2c0.9-1,3.8-4.8,2.1-5.8
		c-4.6-2.8-7.2-6.5-9.5-11.2c-0.2-0.4-0.6-0.7-1.1-0.7c-0.8,0-1.6,0.1-2.6,0.3c-1.2,0.3-2.6,1.7-3.8,1.4c-1.1-0.3-1.6-1-1.8-2.1
		c-0.1-1,0.4-1.5,1.1-2c0.3-0.2,0.8-0.3,1.5-0.3c1.3,0,5.4-0.1,5.2-2.3c-0.7-5.5,0.3-10.4,2.8-14.8c0.4-0.7,0.5-1.3,0-1.9
		c-1.1-1.4-2.3-2.4-3.7-3c-1.1-0.5-1.7-0.8-1.9-1.1c-0.5-0.7-0.5-1.5-0.1-2.3c0.1-0.1,0.1-0.2,0.2-0.3c1.2-1.2,2.4-1.2,3.5,0.1
		c1.2,1.3,4.1,4.6,5.8,3c3.8-3.8,8.2-6,13.2-6.6c0.7-0.1,1.3-0.4,1.5-0.9c0.4-1.3,0.5-2.7,0.2-4.3c-0.2-1.2-0.3-1.8-0.3-2
		C87.3,49.8,88,49,89.3,49z M80.9,64.8c-1.9,1-3.5,2.1-4.8,3.5c-0.1,0.1-0.1,0.3,0,0.4c0,0,0,0,0,0c2.1,1.3,4.3,2.8,6.6,4.3
		c1,0.7,1.9,0.8,2.5,0.5c0.7-0.3,1-1.1,1.1-2.3c0.1-2.8,0.3-5.4,0.4-7.9c0-0.1-0.1-0.3-0.3-0.3c0,0,0,0,0,0
		C84.7,63.3,82.8,63.9,80.9,64.8z M91.8,63.3c0.1,2.3,0.3,5.3,0.6,9c0.2,1.8,2.3,1.4,3.4,0.7c2.4-1.5,4.7-3,6.9-4.4
		c0.1,0,0.1-0.1,0-0.2c0,0,0,0,0,0c-3-3.1-6.5-4.9-10.7-5.4C91.9,63.1,91.8,63.1,91.8,63.3C91.8,63.3,91.8,63.3,91.8,63.3z
		 M107.7,78.2c-0.4-1.8-1-3.6-2.1-5.5c0-0.1-0.2-0.1-0.2-0.1c0,0,0,0,0,0c-1.6,1.3-3.8,3.2-6.7,5.7c-0.6,0.5-0.8,1.1-0.7,1.8
		c0.1,0.7,0.6,1.1,1.3,1.4c3.6,1.2,6.4,2.2,8.3,2.8c0.1,0,0.2,0,0.2-0.1c0,0,0,0,0,0C108.1,82,108.1,80,107.7,78.2z M70.8,78.3
		c-0.4,1.8-0.4,3.8-0.2,5.9c0,0.1,0.1,0.2,0.2,0.2c0,0,0,0,0,0c1.9-0.6,4.7-1.5,8.4-2.7c0.8-0.3,1.2-0.7,1.3-1.4
		c0.1-0.7-0.1-1.3-0.7-1.8c-2.9-2.5-5.1-4.5-6.7-5.8c-0.1-0.1-0.2-0.1-0.3,0c0,0,0,0,0,0C71.9,74.6,71.2,76.4,70.8,78.3z M93.1,81.7
		c0-2.1-1.7-3.8-3.8-3.8l0,0c-2.1,0-3.8,1.7-3.8,3.8s1.7,3.8,3.8,3.8C91.4,85.5,93.1,83.8,93.1,81.7L93.1,81.7z M74.8,94.1
		c1.2,1.5,2.6,2.8,4.3,3.8c0.1,0.1,0.2,0,0.2-0.1c0,0,0,0,0,0c1.4-3.4,2.5-6.2,3.4-8.4c0.2-0.5,0.1-1-0.3-1.5
		c-0.4-0.5-0.9-0.7-1.4-0.6c-2.4,0.4-5.4,0.9-9,1.6c-0.1,0-0.2,0.1-0.1,0.2c0,0,0,0,0,0C72.6,90.9,73.5,92.6,74.8,94.1z M96.2,87.9
		c-0.4,0.5-0.4,1.3,0,2.3c0.8,2,1.9,4.5,3,7.5c0,0.1,0.1,0.2,0.2,0.2c0.1,0.1,0.1,0.1,0.2,0c1.5-1,2.9-2.2,4.2-3.8
		c1.2-1.5,2.2-3.1,2.9-4.9c0-0.1,0-0.2-0.1-0.2c-0.1-0.1-0.2-0.1-0.2-0.1c-3.1-0.6-5.8-1.1-7.9-1.5C97.3,87.2,96.6,87.4,96.2,87.9z
		 M89.3,100.9c1.9,0,3.8-0.3,5.5-0.9c0.1,0,0.1-0.1,0.1-0.2c0,0,0,0,0,0c-1.7-3.2-3.1-5.8-4.3-7.8c-0.3-0.5-0.7-0.7-1.3-0.7
		c-0.6,0-1,0.2-1.3,0.7c-1.2,2-2.6,4.6-4.4,7.8c0,0.1,0,0.2,0.1,0.2c0,0,0,0,0,0C85.6,100.6,87.4,100.9,89.3,100.9z"/>
	<path class="st2" d="M85.3,73.6c-0.7,0.3-1.5,0.2-2.5-0.5c-2.3-1.5-4.5-3-6.6-4.3c-0.1-0.1-0.2-0.2-0.1-0.4c0,0,0,0,0,0
		c1.3-1.4,2.8-2.5,4.8-3.5c1.9-1,3.8-1.6,5.6-1.8c0.1,0,0.3,0.1,0.3,0.2c0,0,0,0,0,0c-0.1,2.5-0.3,5.1-0.4,7.9
		C86.3,72.4,86,73.2,85.3,73.6z"/>
	<path class="st2" d="M92.1,63.1c4.1,0.5,7.7,2.3,10.7,5.4c0,0,0,0.1,0,0.2c0,0,0,0,0,0c-2.2,1.4-4.5,2.9-6.9,4.4
		c-1.1,0.7-3.2,1-3.4-0.7c-0.3-3.8-0.5-6.8-0.6-9C91.8,63.2,91.9,63.1,92.1,63.1C92,63.1,92.1,63.1,92.1,63.1z"/>
	<path class="st2" d="M107.7,78.2c0.4,1.8,0.4,3.8,0.2,5.9c0,0.1-0.1,0.2-0.2,0.2c0,0,0,0,0,0c-1.9-0.6-4.7-1.5-8.3-2.8
		c-0.8-0.3-1.2-0.7-1.3-1.4c-0.1-0.7,0.1-1.3,0.7-1.8c2.9-2.5,5.1-4.4,6.7-5.7c0.1-0.1,0.2-0.1,0.3,0c0,0,0,0,0,0
		C106.7,74.6,107.3,76.4,107.7,78.2z"/>
	<path class="st2" d="M80.6,80.2c-0.1,0.7-0.6,1.1-1.3,1.4c-3.7,1.2-6.5,2.1-8.4,2.7c-0.1,0-0.2,0-0.2-0.1c0,0,0,0,0,0
		c-0.2-2.2-0.2-4.1,0.2-5.9c0.4-1.8,1.1-3.7,2.1-5.6c0-0.1,0.2-0.1,0.2-0.1c0,0,0,0,0,0c1.6,1.3,3.8,3.2,6.7,5.8
		C80.5,78.9,80.8,79.5,80.6,80.2z"/>
	<circle class="st2" cx="89.3" cy="81.7" r="3.8"/>
	<path class="st2" d="M82.5,87.9c0.4,0.5,0.5,1,0.3,1.5c-0.9,2.2-2,5-3.4,8.4c0,0.1-0.1,0.1-0.2,0.1c0,0,0,0,0,0
		c-1.6-1-3-2.3-4.3-3.8c-1.2-1.5-2.2-3.2-2.8-5c0-0.1,0-0.2,0.1-0.2c0,0,0,0,0,0c3.6-0.6,6.6-1.2,9-1.6
		C81.6,87.2,82.1,87.4,82.5,87.9z"/>
	<path class="st2" d="M103.8,94.1c-1.2,1.5-2.6,2.8-4.2,3.8c-0.1,0-0.2,0-0.2,0c-0.1-0.1-0.1-0.1-0.2-0.2c-1.2-3-2.2-5.5-3-7.5
		c-0.4-1-0.4-1.7,0-2.3c0.4-0.5,1.2-0.7,2.2-0.5c2.1,0.4,4.8,0.9,7.9,1.5c0.1,0,0.2,0,0.2,0.1c0.1,0,0.1,0.1,0.1,0.2
		C106,90.9,105,92.5,103.8,94.1z"/>
	<path class="st2" d="M89.3,100.9c-1.9,0-3.8-0.3-5.5-0.9c-0.1,0-0.1-0.1-0.1-0.2c0,0,0,0,0,0c1.8-3.1,3.2-5.7,4.4-7.8
		c0.3-0.5,0.7-0.7,1.3-0.7c0.6,0,1,0.3,1.3,0.7c1.1,2.1,2.6,4.7,4.3,7.8c0,0.1,0,0.2-0.1,0.2c0,0,0,0,0,0
		C93.1,100.6,91.2,100.9,89.3,100.9z"/>
</g>
<g>
	<path class="st4" d="M192.2,58.3h12.3v50.5h-12.3V58.3z"/>
	<path class="st4" d="M241.1,87.1c0-5.5-3-8.5-7.7-8.5c-4.7,0-7.7,3-7.7,8.5v21.8h-12.3V68.7h12.3V74c2.4-3.4,6.8-5.8,12.2-5.8
		c9.3,0,15.5,6.3,15.5,17.1v23.5h-12.2V87.1z"/>
	<path class="st4" d="M277.2,68.1c5.9,0,10.2,2.7,12.4,6.3v-5.7h12.3v40.1c0,10.7-6.2,19.9-20.1,19.9c-12,0-19.7-6-20.8-15.6h12.2
		c0.8,3,3.8,5,8.1,5c4.7,0,8.4-2.4,8.4-9.2v-5.7c-2.2,3.5-6.5,6.3-12.4,6.3c-9.9,0-17.7-8.1-17.7-20.7S267.3,68.1,277.2,68.1z
		 M280.8,78.8c-4.6,0-8.8,3.5-8.8,9.9s4.2,10,8.8,10c4.7,0,8.8-3.5,8.8-9.9S285.5,78.8,280.8,78.8z"/>
	<path class="st4" d="M323.1,108.9h-12.3V68.7h12.3v6.7c2.8-4.2,7.2-7.1,12.6-7.1v13h-3.4c-5.8,0-9.2,2-9.2,8.9V108.9z"/>
	<path class="st4" d="M359.5,109.5c-11.8,0-20.3-7.9-20.3-20.7s8.4-20.7,20.3-20.7c11.7,0,20,7.8,20,20c0,1.2-0.1,2.4-0.2,3.6h-27.9
		c0.4,5.3,3.7,7.7,7.6,7.7c3.5,0,5.4-1.7,6.4-3.9h13.1C376.6,103.4,369.5,109.5,359.5,109.5z M351.5,84.9h15.4
		c0-4.4-3.5-6.9-7.6-6.9C355.3,78,352.2,80.4,351.5,84.9z"/>
	<path class="st4" d="M402.3,109.5c-10.7,0-17.9-6-18.5-13.8H396c0.3,2.8,2.8,4.7,6.2,4.7c3.2,0,4.8-1.4,4.8-3.2
		c0-6.5-21.9-1.8-21.9-16.6c0-6.8,5.8-12.5,16.3-12.5c10.4,0,16.1,5.8,16.9,13.7H407c-0.4-2.7-2.4-4.5-5.9-4.5
		c-2.9,0-4.5,1.2-4.5,3.1c0,6.4,21.7,1.9,22,16.8C418.6,104.2,412.4,109.5,402.3,109.5z"/>
	<path class="st4" d="M442.5,109.5c-10.7,0-17.9-6-18.5-13.8h12.2c0.3,2.8,2.8,4.7,6.2,4.7c3.2,0,4.8-1.4,4.8-3.2
		c0-6.5-21.9-1.8-21.9-16.6c0-6.8,5.8-12.5,16.3-12.5c10.4,0,16.1,5.8,16.9,13.7h-11.4c-0.4-2.7-2.4-4.5-5.9-4.5
		c-2.9,0-4.5,1.2-4.5,3.1c0,6.4,21.7,1.9,22,16.8C458.8,104.2,452.6,109.5,442.5,109.5z"/>
	<path class="st4" d="M481.6,58.3h14.5l14.2,35l14-35h14.5v50.5h-12.3V78.6l-11.3,30.3h-9.9l-11.4-30.4v30.4h-12.3V58.3z"/>
	<path class="st4" d="M563,68.1c6,0,10.2,2.7,12.4,6.3v-5.7h12.3v40.2h-12.3v-5.7c-2.2,3.5-6.5,6.3-12.5,6.3
		c-9.8,0-17.6-8.1-17.6-20.7S553.1,68.1,563,68.1z M566.6,78.8c-4.6,0-8.8,3.5-8.8,9.9s4.2,10,8.8,10c4.7,0,8.8-3.5,8.8-9.9
		S571.2,78.8,566.6,78.8z"/>
	<path class="st4" d="M621.3,68.1c9.9,0,17.7,7.9,17.7,20.6s-7.8,20.7-17.7,20.7c-5.9,0-10.2-2.8-12.4-6.2V128h-12.3V68.7h12.3v5.7
		C611.1,70.9,615.4,68.1,621.3,68.1z M617.6,78.8c-4.6,0-8.8,3.5-8.8,9.9s4.2,9.9,8.8,9.9c4.7,0,8.9-3.6,8.9-10
		S622.3,78.8,617.6,78.8z"/>
</g>
<g>
</g>
<g>
</g>
<g>
</g>
<g>
</g>
<g>
</g>
<g>
</g>
<g>
</g>
<g>
</g>
<g>
</g>
<g>
</g>
<g>
</g>
<g>
</g>
<g>
</g>
<g>
</g>
<g>
</g>
</svg>
